<mxfile host="app.diagrams.net" modified="2020-08-31T17:12:14.575Z" agent="5.0 (Windows NT 10.0; Win64; x64) AppleWebKit/537.36 (KHTML, like Gecko) Chrome/85.0.4183.83 Safari/537.36" etag="GnbIs2hft3P8hfc8FgOP" version="13.6.6" type="github">
  <diagram id="nwbSKEMwJ5wRJ1c5Gprg" name="Page-1">
    <mxGraphModel dx="1360" dy="802" grid="1" gridSize="10" guides="1" tooltips="1" connect="1" arrows="1" fold="1" page="1" pageScale="1" pageWidth="1100" pageHeight="850" math="0" shadow="0">
      <root>
        <mxCell id="0" />
        <mxCell id="1" parent="0" />
        <mxCell id="toF7YcxSu-yzyk84UEi--1" value="LOAD&lt;br&gt;(N-MOSFET)" style="rounded=0;whiteSpace=wrap;html=1;fillColor=#fff2cc;strokeColor=#d6b656;" parent="1" vertex="1">
          <mxGeometry x="860" y="200" width="120" height="240" as="geometry" />
        </mxCell>
        <mxCell id="toF7YcxSu-yzyk84UEi--2" value="CONTROL" style="triangle;whiteSpace=wrap;html=1;fillColor=#fad9d5;strokeColor=#ae4132;" parent="1" vertex="1">
          <mxGeometry x="700" y="220" width="100" height="110" as="geometry" />
        </mxCell>
        <mxCell id="toF7YcxSu-yzyk84UEi--4" value="Measurement" style="triangle;whiteSpace=wrap;html=1;direction=west;fillColor=#fad9d5;strokeColor=#ae4132;" parent="1" vertex="1">
          <mxGeometry x="700" y="330" width="100" height="110" as="geometry" />
        </mxCell>
        <mxCell id="toF7YcxSu-yzyk84UEi--5" value="CPU&lt;br&gt;(STM32)" style="rounded=0;whiteSpace=wrap;html=1;fillColor=#dae8fc;strokeColor=#6c8ebf;" parent="1" vertex="1">
          <mxGeometry x="520" y="200" width="120" height="280" as="geometry" />
        </mxCell>
        <mxCell id="toF7YcxSu-yzyk84UEi--6" value="" style="endArrow=classic;html=1;exitX=1;exitY=0.25;exitDx=0;exitDy=0;" parent="1" source="toF7YcxSu-yzyk84UEi--5" edge="1">
          <mxGeometry width="50" height="50" relative="1" as="geometry">
            <mxPoint x="650" y="320" as="sourcePoint" />
            <mxPoint x="700" y="270" as="targetPoint" />
          </mxGeometry>
        </mxCell>
        <mxCell id="toF7YcxSu-yzyk84UEi--7" value="" style="endArrow=classic;html=1;exitX=1;exitY=0.25;exitDx=0;exitDy=0;" parent="1" edge="1">
          <mxGeometry width="50" height="50" relative="1" as="geometry">
            <mxPoint x="700.0000000000001" y="384.71" as="sourcePoint" />
            <mxPoint x="639.9999999999999" y="384.70999999999987" as="targetPoint" />
          </mxGeometry>
        </mxCell>
        <mxCell id="toF7YcxSu-yzyk84UEi--8" value="" style="endArrow=classic;html=1;exitX=1;exitY=0.25;exitDx=0;exitDy=0;" parent="1" edge="1">
          <mxGeometry width="50" height="50" relative="1" as="geometry">
            <mxPoint x="800" y="274.71" as="sourcePoint" />
            <mxPoint x="860" y="274.71" as="targetPoint" />
          </mxGeometry>
        </mxCell>
        <mxCell id="toF7YcxSu-yzyk84UEi--9" value="" style="endArrow=classic;html=1;exitX=1;exitY=0.25;exitDx=0;exitDy=0;" parent="1" edge="1">
          <mxGeometry width="50" height="50" relative="1" as="geometry">
            <mxPoint x="860" y="384.71000000000004" as="sourcePoint" />
            <mxPoint x="800" y="384.71000000000004" as="targetPoint" />
          </mxGeometry>
        </mxCell>
        <mxCell id="toF7YcxSu-yzyk84UEi--10" value="DISPLAY" style="rounded=0;whiteSpace=wrap;html=1;fillColor=#d5e8d4;strokeColor=#82b366;" parent="1" vertex="1">
          <mxGeometry x="520" y="80" width="120" height="60" as="geometry" />
        </mxCell>
        <mxCell id="toF7YcxSu-yzyk84UEi--11" value="" style="endArrow=classic;html=1;exitX=0.5;exitY=0;exitDx=0;exitDy=0;" parent="1" source="toF7YcxSu-yzyk84UEi--5" edge="1">
          <mxGeometry width="50" height="50" relative="1" as="geometry">
            <mxPoint x="530" y="190" as="sourcePoint" />
            <mxPoint x="580" y="140" as="targetPoint" />
          </mxGeometry>
        </mxCell>
        <mxCell id="toF7YcxSu-yzyk84UEi--13" value="INPUT&lt;br&gt;(encoder)" style="ellipse;whiteSpace=wrap;html=1;aspect=fixed;fillColor=#e1d5e7;strokeColor=#9673a6;" parent="1" vertex="1">
          <mxGeometry x="350" y="200" width="80" height="80" as="geometry" />
        </mxCell>
        <mxCell id="toF7YcxSu-yzyk84UEi--14" value="" style="endArrow=classic;html=1;exitX=1;exitY=0.25;exitDx=0;exitDy=0;entryX=-0.02;entryY=0.141;entryDx=0;entryDy=0;entryPerimeter=0;" parent="1" target="toF7YcxSu-yzyk84UEi--5" edge="1">
          <mxGeometry width="50" height="50" relative="1" as="geometry">
            <mxPoint x="430" y="239.76" as="sourcePoint" />
            <mxPoint x="490" y="239.76" as="targetPoint" />
          </mxGeometry>
        </mxCell>
        <mxCell id="toF7YcxSu-yzyk84UEi--15" value="INPUT&lt;br&gt;(Button)" style="ellipse;whiteSpace=wrap;html=1;aspect=fixed;fillColor=#e1d5e7;strokeColor=#9673a6;" parent="1" vertex="1">
          <mxGeometry x="352.4" y="345" width="80" height="80" as="geometry" />
        </mxCell>
        <mxCell id="toF7YcxSu-yzyk84UEi--16" value="" style="endArrow=classic;html=1;exitX=1;exitY=0.25;exitDx=0;exitDy=0;entryX=-0.02;entryY=0.141;entryDx=0;entryDy=0;entryPerimeter=0;" parent="1" edge="1">
          <mxGeometry width="50" height="50" relative="1" as="geometry">
            <mxPoint x="432.4" y="384.76" as="sourcePoint" />
            <mxPoint x="520.0000000000001" y="384.4799999999999" as="targetPoint" />
          </mxGeometry>
        </mxCell>
        <mxCell id="toF7YcxSu-yzyk84UEi--17" value="Sensing&lt;br&gt;U&lt;br&gt;I" style="text;html=1;strokeColor=none;fillColor=none;align=center;verticalAlign=middle;whiteSpace=wrap;rounded=0;" parent="1" vertex="1">
          <mxGeometry x="890" y="365" width="40" height="20" as="geometry" />
        </mxCell>
        <mxCell id="wN_A9hWKJL8-od2Q1SIo-1" value="FAN" style="rounded=0;whiteSpace=wrap;html=1;fillColor=#d5e8d4;strokeColor=#82b366;" vertex="1" parent="1">
          <mxGeometry x="520" y="540" width="120" height="60" as="geometry" />
        </mxCell>
        <mxCell id="wN_A9hWKJL8-od2Q1SIo-2" value="" style="endArrow=classic;html=1;exitX=0.5;exitY=0;exitDx=0;exitDy=0;" edge="1" parent="1">
          <mxGeometry width="50" height="50" relative="1" as="geometry">
            <mxPoint x="579.5" y="480" as="sourcePoint" />
            <mxPoint x="579.5" y="540" as="targetPoint" />
          </mxGeometry>
        </mxCell>
        <mxCell id="wN_A9hWKJL8-od2Q1SIo-4" value="T" style="ellipse;whiteSpace=wrap;html=1;fillColor=#ffe6cc;strokeColor=#d79b00;" vertex="1" parent="1">
          <mxGeometry x="890" y="410" width="40" height="20" as="geometry" />
        </mxCell>
        <mxCell id="wN_A9hWKJL8-od2Q1SIo-5" value="" style="endArrow=classic;html=1;" edge="1" parent="1">
          <mxGeometry width="50" height="50" relative="1" as="geometry">
            <mxPoint x="910" y="460" as="sourcePoint" />
            <mxPoint x="640" y="460" as="targetPoint" />
          </mxGeometry>
        </mxCell>
        <mxCell id="wN_A9hWKJL8-od2Q1SIo-6" value="" style="endArrow=none;html=1;" edge="1" parent="1">
          <mxGeometry width="50" height="50" relative="1" as="geometry">
            <mxPoint x="910" y="460" as="sourcePoint" />
            <mxPoint x="910" y="430" as="targetPoint" />
          </mxGeometry>
        </mxCell>
        <mxCell id="wN_A9hWKJL8-od2Q1SIo-7" value="ADC" style="text;html=1;align=center;verticalAlign=middle;resizable=0;points=[];autosize=1;" vertex="1" parent="1">
          <mxGeometry x="600" y="450" width="40" height="20" as="geometry" />
        </mxCell>
        <mxCell id="wN_A9hWKJL8-od2Q1SIo-8" value="ADC" style="text;html=1;align=center;verticalAlign=middle;resizable=0;points=[];autosize=1;" vertex="1" parent="1">
          <mxGeometry x="600" y="375" width="40" height="20" as="geometry" />
        </mxCell>
        <mxCell id="wN_A9hWKJL8-od2Q1SIo-9" value="DAC" style="text;html=1;align=center;verticalAlign=middle;resizable=0;points=[];autosize=1;" vertex="1" parent="1">
          <mxGeometry x="600" y="250" width="40" height="20" as="geometry" />
        </mxCell>
        <mxCell id="wN_A9hWKJL8-od2Q1SIo-10" value="PWM" style="text;html=1;align=center;verticalAlign=middle;resizable=0;points=[];autosize=1;" vertex="1" parent="1">
          <mxGeometry x="560" y="460" width="40" height="20" as="geometry" />
        </mxCell>
        <mxCell id="wN_A9hWKJL8-od2Q1SIo-11" value="GPIO" style="text;html=1;align=center;verticalAlign=middle;resizable=0;points=[];autosize=1;" vertex="1" parent="1">
          <mxGeometry x="520" y="230" width="50" height="20" as="geometry" />
        </mxCell>
        <mxCell id="wN_A9hWKJL8-od2Q1SIo-12" value="GPIO" style="text;html=1;align=center;verticalAlign=middle;resizable=0;points=[];autosize=1;" vertex="1" parent="1">
          <mxGeometry x="520" y="375" width="50" height="20" as="geometry" />
        </mxCell>
      </root>
    </mxGraphModel>
  </diagram>
</mxfile>
